<?xml version="1.0" encoding="UTF-8" standalone="no"?>
<!DOCTYPE svg PUBLIC "-//W3C//DTD SVG 1.1//EN"
 "http://www.w3.org/Graphics/SVG/1.1/DTD/svg11.dtd">
<!-- Generated by graphviz version 2.40.1 (20161225.0304)
 -->
<!-- Title: dependencies Pages: 1 -->
<svg width="1768pt" height="284pt"
 viewBox="0.00 0.00 1768.00 284.00" xmlns="http://www.w3.org/2000/svg" xmlns:xlink="http://www.w3.org/1999/xlink">
<g id="graph0" class="graph" transform="scale(1 1) rotate(0) translate(4 280)">
<title>dependencies</title>
<polygon fill="#ffffff" stroke="transparent" points="-4,4 -4,-280 1764,-280 1764,4 -4,4"/>
<text text-anchor="start" x="859.0091" y="-42.4" font-family="sans-serif" font-weight="bold" font-size="14.00" fill="#000000">Legend</text>
<polygon fill="#ffffb3" stroke="transparent" points="646,-10 646,-30 666,-30 666,-10 646,-10"/>
<text text-anchor="start" x="669.629" y="-15.4" font-family="sans-serif" font-size="14.00" fill="#000000"> &#160;Declarations</text>
<polygon fill="#8dd3c7" stroke="transparent" points="759,-10 759,-30 779,-30 779,-10 759,-10"/>
<text text-anchor="start" x="782.7251" y="-15.4" font-family="sans-serif" font-size="14.00" fill="#000000"> &#160;Module</text>
<polygon fill="#80b1d3" stroke="transparent" points="845,-10 845,-30 865,-30 865,-10 845,-10"/>
<text text-anchor="start" x="868.7812" y="-15.4" font-family="sans-serif" font-size="14.00" fill="#000000"> &#160;Bootstrap</text>
<polygon fill="#fdb462" stroke="transparent" points="942,-10 942,-30 962,-30 962,-10 942,-10"/>
<text text-anchor="start" x="965.6732" y="-15.4" font-family="sans-serif" font-size="14.00" fill="#000000"> &#160;Providers</text>
<polygon fill="#fb8072" stroke="transparent" points="1038,-10 1038,-30 1058,-30 1058,-10 1038,-10"/>
<text text-anchor="start" x="1061.7258" y="-15.4" font-family="sans-serif" font-size="14.00" fill="#000000"> &#160;Exports</text>
<g id="clust1" class="cluster">
<title>cluster_SharedModule</title>
<polygon fill="none" stroke="#000000" stroke-dasharray="1,5" points="8,-70 8,-268 1752,-268 1752,-70 8,-70"/>
</g>
<g id="clust2" class="cluster">
<title>cluster_SharedModule_declarations</title>
<polygon fill="none" stroke="#000000" points="39,-78 39,-130 1720,-130 1720,-78 39,-78"/>
</g>
<g id="clust17" class="cluster">
<title>cluster_SharedModule_exports</title>
<polygon fill="none" stroke="#000000" points="16,-208 16,-260 1744,-260 1744,-208 16,-208"/>
</g>
<!-- CustomButtonGoldenrodComponent -->
<g id="node1" class="node">
<title>CustomButtonGoldenrodComponent</title>
<polygon fill="#ffffb3" stroke="#000000" points="1712.385,-122 1489.615,-122 1489.615,-86 1712.385,-86 1712.385,-122"/>
<text text-anchor="middle" x="1601" y="-99.8" font-family="Times,serif" font-size="14.00" fill="#000000">CustomButtonGoldenrodComponent</text>
</g>
<!-- SharedModule -->
<g id="node14" class="node">
<title>SharedModule</title>
<polygon fill="#8dd3c7" stroke="#000000" points="774.4231,-187 771.4231,-191 750.4231,-191 747.4231,-187 675.5769,-187 675.5769,-151 774.4231,-151 774.4231,-187"/>
<text text-anchor="middle" x="725" y="-164.8" font-family="Times,serif" font-size="14.00" fill="#000000">SharedModule</text>
</g>
<!-- CustomButtonGoldenrodComponent&#45;&gt;SharedModule -->
<g id="edge1" class="edge">
<title>CustomButtonGoldenrodComponent&#45;&gt;SharedModule</title>
<path fill="none" stroke="#000000" d="M1501.0253,-122.1686C1501.0253,-141.0898 1501.0253,-168 1501.0253,-168 1501.0253,-168 784.4281,-168 784.4281,-168"/>
<polygon fill="#000000" stroke="#000000" points="784.4281,-164.5001 774.4281,-168 784.4281,-171.5001 784.4281,-164.5001"/>
</g>
<!-- FavouriteComponent -->
<g id="node2" class="node">
<title>FavouriteComponent</title>
<polygon fill="#ffffb3" stroke="#000000" points="1471.486,-122 1336.514,-122 1336.514,-86 1471.486,-86 1471.486,-122"/>
<text text-anchor="middle" x="1404" y="-99.8" font-family="Times,serif" font-size="14.00" fill="#000000">FavouriteComponent</text>
</g>
<!-- FavouriteComponent&#45;&gt;SharedModule -->
<g id="edge2" class="edge">
<title>FavouriteComponent&#45;&gt;SharedModule</title>
<path fill="none" stroke="#000000" d="M1345.132,-122.302C1345.132,-140.2699 1345.132,-165 1345.132,-165 1345.132,-165 784.4391,-165 784.4391,-165"/>
<polygon fill="#000000" stroke="#000000" points="784.4391,-161.5001 774.4391,-165 784.4391,-168.5001 784.4391,-161.5001"/>
</g>
<!-- FilterPipe -->
<g id="node3" class="node">
<title>FilterPipe</title>
<polygon fill="#ffffb3" stroke="#000000" points="1318.7177,-122 1247.2823,-122 1247.2823,-86 1318.7177,-86 1318.7177,-122"/>
<text text-anchor="middle" x="1283" y="-99.8" font-family="Times,serif" font-size="14.00" fill="#000000">FilterPipe</text>
</g>
<!-- FilterPipe&#45;&gt;SharedModule -->
<g id="edge3" class="edge">
<title>FilterPipe&#45;&gt;SharedModule</title>
<path fill="none" stroke="#000000" d="M1254.0163,-122.0225C1254.0163,-139.3734 1254.0163,-163 1254.0163,-163 1254.0163,-163 784.2935,-163 784.2935,-163"/>
<polygon fill="#000000" stroke="#000000" points="784.2936,-159.5001 774.2935,-163 784.2935,-166.5001 784.2936,-159.5001"/>
</g>
<!-- FlipCardComponent -->
<g id="node4" class="node">
<title>FlipCardComponent</title>
<polygon fill="#ffffb3" stroke="#000000" points="1229.608,-122 1098.392,-122 1098.392,-86 1229.608,-86 1229.608,-122"/>
<text text-anchor="middle" x="1164" y="-99.8" font-family="Times,serif" font-size="14.00" fill="#000000">FlipCardComponent</text>
</g>
<!-- FlipCardComponent&#45;&gt;SharedModule -->
<g id="edge4" class="edge">
<title>FlipCardComponent&#45;&gt;SharedModule</title>
<path fill="none" stroke="#000000" d="M1103.071,-122.027C1103.071,-138.3976 1103.071,-160 1103.071,-160 1103.071,-160 784.4262,-160 784.4262,-160"/>
<polygon fill="#000000" stroke="#000000" points="784.4262,-156.5001 774.4262,-160 784.4261,-163.5001 784.4262,-156.5001"/>
</g>
<!-- NoResultsComponent -->
<g id="node5" class="node">
<title>NoResultsComponent</title>
<polygon fill="#ffffb3" stroke="#000000" points="1080.661,-122 941.339,-122 941.339,-86 1080.661,-86 1080.661,-122"/>
<text text-anchor="middle" x="1011" y="-99.8" font-family="Times,serif" font-size="14.00" fill="#000000">NoResultsComponent</text>
</g>
<!-- NoResultsComponent&#45;&gt;SharedModule -->
<g id="edge5" class="edge">
<title>NoResultsComponent&#45;&gt;SharedModule</title>
<path fill="none" stroke="#000000" d="M1036.0268,-122.2396C1036.0268,-137.5706 1036.0268,-157 1036.0268,-157 1036.0268,-157 784.2831,-157 784.2831,-157"/>
<polygon fill="#000000" stroke="#000000" points="784.2832,-153.5001 774.2831,-157 784.2831,-160.5001 784.2832,-153.5001"/>
</g>
<!-- PopupCloseButton -->
<g id="node6" class="node">
<title>PopupCloseButton</title>
<polygon fill="#ffffb3" stroke="#000000" points="922.787,-122 801.213,-122 801.213,-86 922.787,-86 922.787,-122"/>
<text text-anchor="middle" x="862" y="-99.8" font-family="Times,serif" font-size="14.00" fill="#000000">PopupCloseButton</text>
</g>
<!-- PopupCloseButton&#45;&gt;SharedModule -->
<g id="edge6" class="edge">
<title>PopupCloseButton&#45;&gt;SharedModule</title>
<path fill="none" stroke="#000000" d="M883.0478,-122.0511C883.0478,-136.373 883.0478,-154 883.0478,-154 883.0478,-154 784.5737,-154 784.5737,-154"/>
<polygon fill="#000000" stroke="#000000" points="784.5737,-150.5001 774.5737,-154 784.5736,-157.5001 784.5737,-150.5001"/>
</g>
<!-- PopupComponent -->
<g id="node7" class="node">
<title>PopupComponent</title>
<polygon fill="#ffffb3" stroke="#000000" points="783.6151,-122 666.3849,-122 666.3849,-86 783.6151,-86 783.6151,-122"/>
<text text-anchor="middle" x="725" y="-99.8" font-family="Times,serif" font-size="14.00" fill="#000000">PopupComponent</text>
</g>
<!-- PopupComponent&#45;&gt;SharedModule -->
<g id="edge7" class="edge">
<title>PopupComponent&#45;&gt;SharedModule</title>
<path fill="none" stroke="#000000" d="M708.5963,-122.1061C708.5963,-122.1061 708.5963,-140.991 708.5963,-140.991"/>
<polygon fill="#000000" stroke="#000000" points="705.0964,-140.9909 708.5963,-150.991 712.0964,-140.991 705.0964,-140.9909"/>
</g>
<!-- PopupComponent&#45;&gt;SharedModule -->
<g id="edge8" class="edge">
<title>PopupComponent&#45;&gt;SharedModule</title>
<path fill="none" stroke="#000000" d="M741.4037,-122.1061C741.4037,-122.1061 741.4037,-140.991 741.4037,-140.991"/>
<polygon fill="#000000" stroke="#000000" points="737.9038,-140.9909 741.4037,-150.991 744.9038,-140.991 737.9038,-140.9909"/>
</g>
<!-- SearchComponent -->
<g id="node8" class="node">
<title>SearchComponent</title>
<polygon fill="#ffffb3" stroke="#000000" points="648.9201,-122 529.0799,-122 529.0799,-86 648.9201,-86 648.9201,-122"/>
<text text-anchor="middle" x="589" y="-99.8" font-family="Times,serif" font-size="14.00" fill="#000000">SearchComponent</text>
</g>
<!-- SearchComponent&#45;&gt;SharedModule -->
<g id="edge9" class="edge">
<title>SearchComponent&#45;&gt;SharedModule</title>
<path fill="none" stroke="#000000" d="M607.4032,-122.0511C607.4032,-136.373 607.4032,-154 607.4032,-154 607.4032,-154 665.4692,-154 665.4692,-154"/>
<polygon fill="#000000" stroke="#000000" points="665.4692,-157.5001 675.4692,-154 665.4692,-150.5001 665.4692,-157.5001"/>
</g>
<!-- SpinnerComponent -->
<g id="node9" class="node">
<title>SpinnerComponent</title>
<polygon fill="#ffffb3" stroke="#000000" points="511.3809,-122 386.6191,-122 386.6191,-86 511.3809,-86 511.3809,-122"/>
<text text-anchor="middle" x="449" y="-99.8" font-family="Times,serif" font-size="14.00" fill="#000000">SpinnerComponent</text>
</g>
<!-- SpinnerComponent&#45;&gt;SharedModule -->
<g id="edge10" class="edge">
<title>SpinnerComponent&#45;&gt;SharedModule</title>
<path fill="none" stroke="#000000" d="M465.6468,-122.2396C465.6468,-137.5706 465.6468,-157 465.6468,-157 465.6468,-157 665.6072,-157 665.6072,-157"/>
<polygon fill="#000000" stroke="#000000" points="665.6072,-160.5001 675.6072,-157 665.6071,-153.5001 665.6072,-160.5001"/>
</g>
<!-- SplitPipe -->
<g id="node10" class="node">
<title>SplitPipe</title>
<polygon fill="#ffffb3" stroke="#000000" points="368.8431,-122 301.1569,-122 301.1569,-86 368.8431,-86 368.8431,-122"/>
<text text-anchor="middle" x="335" y="-99.8" font-family="Times,serif" font-size="14.00" fill="#000000">SplitPipe</text>
</g>
<!-- SplitPipe&#45;&gt;SharedModule -->
<g id="edge11" class="edge">
<title>SplitPipe&#45;&gt;SharedModule</title>
<path fill="none" stroke="#000000" d="M363.5461,-122.027C363.5461,-138.3976 363.5461,-160 363.5461,-160 363.5461,-160 665.4993,-160 665.4993,-160"/>
<polygon fill="#000000" stroke="#000000" points="665.4993,-163.5001 675.4993,-160 665.4992,-156.5001 665.4993,-163.5001"/>
</g>
<!-- XButton -->
<g id="node11" class="node">
<title>XButton</title>
<polygon fill="#ffffb3" stroke="#000000" points="283.2248,-122 218.7752,-122 218.7752,-86 283.2248,-86 283.2248,-122"/>
<text text-anchor="middle" x="251" y="-99.8" font-family="Times,serif" font-size="14.00" fill="#000000">XButton</text>
</g>
<!-- XButton&#45;&gt;SharedModule -->
<g id="edge12" class="edge">
<title>XButton&#45;&gt;SharedModule</title>
<path fill="none" stroke="#000000" d="M276.4872,-122.0225C276.4872,-139.3734 276.4872,-163 276.4872,-163 276.4872,-163 665.7183,-163 665.7183,-163"/>
<polygon fill="#000000" stroke="#000000" points="665.7183,-166.5001 675.7183,-163 665.7183,-159.5001 665.7183,-166.5001"/>
</g>
<!-- XInput -->
<g id="node12" class="node">
<title>XInput</title>
<polygon fill="#ffffb3" stroke="#000000" points="200.6588,-122 145.3412,-122 145.3412,-86 200.6588,-86 200.6588,-122"/>
<text text-anchor="middle" x="173" y="-99.8" font-family="Times,serif" font-size="14.00" fill="#000000">XInput</text>
</g>
<!-- XInput&#45;&gt;SharedModule -->
<g id="edge13" class="edge">
<title>XInput&#45;&gt;SharedModule</title>
<path fill="none" stroke="#000000" d="M192.7039,-122.302C192.7039,-140.2699 192.7039,-165 192.7039,-165 192.7039,-165 665.4009,-165 665.4009,-165"/>
<polygon fill="#000000" stroke="#000000" points="665.4009,-168.5001 675.4009,-165 665.4008,-161.5001 665.4009,-168.5001"/>
</g>
<!-- XPassword -->
<g id="node13" class="node">
<title>XPassword</title>
<polygon fill="#ffffb3" stroke="#000000" points="126.7606,-122 47.2394,-122 47.2394,-86 126.7606,-86 126.7606,-122"/>
<text text-anchor="middle" x="87" y="-99.8" font-family="Times,serif" font-size="14.00" fill="#000000">XPassword</text>
</g>
<!-- XPassword&#45;&gt;SharedModule -->
<g id="edge14" class="edge">
<title>XPassword&#45;&gt;SharedModule</title>
<path fill="none" stroke="#000000" d="M116.5256,-122.1686C116.5256,-141.0898 116.5256,-168 116.5256,-168 116.5256,-168 665.7214,-168 665.7214,-168"/>
<polygon fill="#000000" stroke="#000000" points="665.7214,-171.5001 675.7214,-168 665.7214,-164.5001 665.7214,-171.5001"/>
</g>
<!-- CustomButtonGoldenrodComponent  -->
<g id="node15" class="node">
<title>CustomButtonGoldenrodComponent </title>
<polygon fill="#fb8072" stroke="#000000" points="1736.3853,-252 1509.6147,-252 1509.6147,-216 1736.3853,-216 1736.3853,-252"/>
<text text-anchor="middle" x="1623" y="-229.8" font-family="Times,serif" font-size="14.00" fill="#000000">CustomButtonGoldenrodComponent </text>
</g>
<!-- SharedModule&#45;&gt;CustomButtonGoldenrodComponent  -->
<g id="edge15" class="edge">
<title>SharedModule&#45;&gt;CustomButtonGoldenrodComponent </title>
<path fill="none" stroke="#000000" stroke-dasharray="5,2" d="M774.222,-171C960.4122,-171 1611.125,-171 1611.125,-171 1611.125,-171 1611.125,-205.7778 1611.125,-205.7778"/>
<polygon fill="#000000" stroke="#000000" points="1607.6251,-205.7778 1611.125,-215.7778 1614.6251,-205.7778 1607.6251,-205.7778"/>
</g>
<!-- FavouriteComponent  -->
<g id="node16" class="node">
<title>FavouriteComponent </title>
<polygon fill="#fb8072" stroke="#000000" points="1492.4869,-252 1353.5131,-252 1353.5131,-216 1492.4869,-216 1492.4869,-252"/>
<text text-anchor="middle" x="1423" y="-229.8" font-family="Times,serif" font-size="14.00" fill="#000000">FavouriteComponent </text>
</g>
<!-- SharedModule&#45;&gt;FavouriteComponent  -->
<g id="edge16" class="edge">
<title>SharedModule&#45;&gt;FavouriteComponent </title>
<path fill="none" stroke="#000000" stroke-dasharray="5,2" d="M774.4523,-174C932.1185,-174 1412.625,-174 1412.625,-174 1412.625,-174 1412.625,-205.998 1412.625,-205.998"/>
<polygon fill="#000000" stroke="#000000" points="1409.1251,-205.998 1412.625,-215.998 1416.1251,-205.9981 1409.1251,-205.998"/>
</g>
<!-- FilterPipe  -->
<g id="node17" class="node">
<title>FilterPipe </title>
<polygon fill="#fb8072" stroke="#000000" points="1335.2179,-252 1260.7821,-252 1260.7821,-216 1335.2179,-216 1335.2179,-252"/>
<text text-anchor="middle" x="1298" y="-229.8" font-family="Times,serif" font-size="14.00" fill="#000000">FilterPipe </text>
</g>
<!-- SharedModule&#45;&gt;FilterPipe  -->
<g id="edge17" class="edge">
<title>SharedModule&#45;&gt;FilterPipe </title>
<path fill="none" stroke="#000000" stroke-dasharray="5,2" d="M774.6118,-176C912.3908,-176 1289.625,-176 1289.625,-176 1289.625,-176 1289.625,-205.9664 1289.625,-205.9664"/>
<polygon fill="#000000" stroke="#000000" points="1286.1251,-205.9663 1289.625,-215.9664 1293.1251,-205.9664 1286.1251,-205.9663"/>
</g>
<!-- FlipCardComponent  -->
<g id="node18" class="node">
<title>FlipCardComponent </title>
<polygon fill="#fb8072" stroke="#000000" points="1242.1086,-252 1107.8914,-252 1107.8914,-216 1242.1086,-216 1242.1086,-252"/>
<text text-anchor="middle" x="1175" y="-229.8" font-family="Times,serif" font-size="14.00" fill="#000000">FlipCardComponent </text>
</g>
<!-- SharedModule&#45;&gt;FlipCardComponent  -->
<g id="edge18" class="edge">
<title>SharedModule&#45;&gt;FlipCardComponent </title>
<path fill="none" stroke="#000000" stroke-dasharray="5,2" d="M774.5981,-179C890.3605,-179 1168.625,-179 1168.625,-179 1168.625,-179 1168.625,-205.9909 1168.625,-205.9909"/>
<polygon fill="#000000" stroke="#000000" points="1165.1251,-205.9909 1168.625,-215.9909 1172.1251,-205.991 1165.1251,-205.9909"/>
</g>
<!-- NoResultsComponent  -->
<g id="node19" class="node">
<title>NoResultsComponent </title>
<polygon fill="#fb8072" stroke="#000000" points="1089.6607,-252 946.3393,-252 946.3393,-216 1089.6607,-216 1089.6607,-252"/>
<text text-anchor="middle" x="1018" y="-229.8" font-family="Times,serif" font-size="14.00" fill="#000000">NoResultsComponent </text>
</g>
<!-- SharedModule&#45;&gt;NoResultsComponent  -->
<g id="edge19" class="edge">
<title>SharedModule&#45;&gt;NoResultsComponent </title>
<path fill="none" stroke="#000000" stroke-dasharray="5,2" d="M774.4506,-182C851.4404,-182 991.2232,-182 991.2232,-182 991.2232,-182 991.2232,-205.8129 991.2232,-205.8129"/>
<polygon fill="#000000" stroke="#000000" points="987.7233,-205.8129 991.2232,-215.8129 994.7233,-205.813 987.7233,-205.8129"/>
</g>
<!-- PopupCloseButton  -->
<g id="node20" class="node">
<title>PopupCloseButton </title>
<polygon fill="#fb8072" stroke="#000000" points="928.7871,-252 803.2129,-252 803.2129,-216 928.7871,-216 928.7871,-252"/>
<text text-anchor="middle" x="866" y="-229.8" font-family="Times,serif" font-size="14.00" fill="#000000">PopupCloseButton </text>
</g>
<!-- SharedModule&#45;&gt;PopupCloseButton  -->
<g id="edge20" class="edge">
<title>SharedModule&#45;&gt;PopupCloseButton </title>
<path fill="none" stroke="#000000" stroke-dasharray="5,2" d="M774.4435,-185C806.834,-185 843.2022,-185 843.2022,-185 843.2022,-185 843.2022,-205.7542 843.2022,-205.7542"/>
<polygon fill="#000000" stroke="#000000" points="839.7023,-205.7542 843.2022,-215.7542 846.7023,-205.7542 839.7023,-205.7542"/>
</g>
<!-- PopupComponent  -->
<g id="node21" class="node">
<title>PopupComponent </title>
<polygon fill="#fb8072" stroke="#000000" points="785.1156,-252 664.8844,-252 664.8844,-216 785.1156,-216 785.1156,-252"/>
<text text-anchor="middle" x="725" y="-229.8" font-family="Times,serif" font-size="14.00" fill="#000000">PopupComponent </text>
</g>
<!-- SharedModule&#45;&gt;PopupComponent  -->
<g id="edge21" class="edge">
<title>SharedModule&#45;&gt;PopupComponent </title>
<path fill="none" stroke="#000000" stroke-dasharray="5,2" d="M725,-187.1061C725,-187.1061 725,-205.991 725,-205.991"/>
<polygon fill="#000000" stroke="#000000" points="721.5001,-205.9909 725,-215.991 728.5001,-205.991 721.5001,-205.9909"/>
</g>
<!-- SearchComponent  -->
<g id="node22" class="node">
<title>SearchComponent </title>
<polygon fill="#fb8072" stroke="#000000" points="646.4194,-252 523.5806,-252 523.5806,-216 646.4194,-216 646.4194,-252"/>
<text text-anchor="middle" x="585" y="-229.8" font-family="Times,serif" font-size="14.00" fill="#000000">SearchComponent </text>
</g>
<!-- SharedModule&#45;&gt;SearchComponent  -->
<g id="edge22" class="edge">
<title>SharedModule&#45;&gt;SearchComponent </title>
<path fill="none" stroke="#000000" stroke-dasharray="5,2" d="M675.4339,-185C629.5394,-185 568.3468,-185 568.3468,-185 568.3468,-185 568.3468,-205.7542 568.3468,-205.7542"/>
<polygon fill="#000000" stroke="#000000" points="564.8469,-205.7542 568.3468,-215.7542 571.8469,-205.7542 564.8469,-205.7542"/>
</g>
<!-- SpinnerComponent  -->
<g id="node23" class="node">
<title>SpinnerComponent </title>
<polygon fill="#fb8072" stroke="#000000" points="505.3814,-252 376.6186,-252 376.6186,-216 505.3814,-216 505.3814,-252"/>
<text text-anchor="middle" x="441" y="-229.8" font-family="Times,serif" font-size="14.00" fill="#000000">SpinnerComponent </text>
</g>
<!-- SharedModule&#45;&gt;SpinnerComponent  -->
<g id="edge23" class="edge">
<title>SharedModule&#45;&gt;SpinnerComponent </title>
<path fill="none" stroke="#000000" stroke-dasharray="5,2" d="M675.6433,-182C590.7482,-182 426.1032,-182 426.1032,-182 426.1032,-182 426.1032,-205.8129 426.1032,-205.8129"/>
<polygon fill="#000000" stroke="#000000" points="422.6033,-205.8129 426.1032,-215.8129 429.6033,-205.813 422.6033,-205.8129"/>
</g>
<!-- SplitPipe  -->
<g id="node24" class="node">
<title>SplitPipe </title>
<polygon fill="#fb8072" stroke="#000000" points="358.3424,-252 287.6576,-252 287.6576,-216 358.3424,-216 358.3424,-252"/>
<text text-anchor="middle" x="323" y="-229.8" font-family="Times,serif" font-size="14.00" fill="#000000">SplitPipe </text>
</g>
<!-- SharedModule&#45;&gt;SplitPipe  -->
<g id="edge24" class="edge">
<title>SharedModule&#45;&gt;SplitPipe </title>
<path fill="none" stroke="#000000" stroke-dasharray="5,2" d="M675.7561,-179C569.8358,-179 329.875,-179 329.875,-179 329.875,-179 329.875,-205.9909 329.875,-205.9909"/>
<polygon fill="#000000" stroke="#000000" points="326.3751,-205.9909 329.875,-215.9909 333.3751,-205.991 326.3751,-205.9909"/>
</g>
<!-- XButton  -->
<g id="node25" class="node">
<title>XButton </title>
<polygon fill="#fb8072" stroke="#000000" points="269.725,-252 202.275,-252 202.275,-216 269.725,-216 269.725,-252"/>
<text text-anchor="middle" x="236" y="-229.8" font-family="Times,serif" font-size="14.00" fill="#000000">XButton </text>
</g>
<!-- SharedModule&#45;&gt;XButton  -->
<g id="edge25" class="edge">
<title>SharedModule&#45;&gt;XButton </title>
<path fill="none" stroke="#000000" stroke-dasharray="5,2" d="M675.3749,-176C552.5761,-176 244.375,-176 244.375,-176 244.375,-176 244.375,-205.9664 244.375,-205.9664"/>
<polygon fill="#000000" stroke="#000000" points="240.8751,-205.9663 244.375,-215.9664 247.8751,-205.9664 240.8751,-205.9663"/>
</g>
<!-- XInput  -->
<g id="node26" class="node">
<title>XInput </title>
<polygon fill="#fb8072" stroke="#000000" points="184.658,-252 125.342,-252 125.342,-216 184.658,-216 184.658,-252"/>
<text text-anchor="middle" x="155" y="-229.8" font-family="Times,serif" font-size="14.00" fill="#000000">XInput </text>
</g>
<!-- SharedModule&#45;&gt;XInput  -->
<g id="edge26" class="edge">
<title>SharedModule&#45;&gt;XInput </title>
<path fill="none" stroke="#000000" stroke-dasharray="5,2" d="M675.7836,-174C539.1027,-174 164.875,-174 164.875,-174 164.875,-174 164.875,-205.998 164.875,-205.998"/>
<polygon fill="#000000" stroke="#000000" points="161.3751,-205.998 164.875,-215.998 168.3751,-205.9981 161.3751,-205.998"/>
</g>
<!-- XPassword  -->
<g id="node27" class="node">
<title>XPassword </title>
<polygon fill="#fb8072" stroke="#000000" points="107.7606,-252 24.2394,-252 24.2394,-216 107.7606,-216 107.7606,-252"/>
<text text-anchor="middle" x="66" y="-229.8" font-family="Times,serif" font-size="14.00" fill="#000000">XPassword </text>
</g>
<!-- SharedModule&#45;&gt;XPassword  -->
<g id="edge27" class="edge">
<title>SharedModule&#45;&gt;XPassword </title>
<path fill="none" stroke="#000000" stroke-dasharray="5,2" d="M675.5246,-171C524.133,-171 77.375,-171 77.375,-171 77.375,-171 77.375,-205.7778 77.375,-205.7778"/>
<polygon fill="#000000" stroke="#000000" points="73.8751,-205.7778 77.375,-215.7778 80.8751,-205.7778 73.8751,-205.7778"/>
</g>
</g>
</svg>
