<?xml version="1.0" encoding="UTF-8" standalone="no"?>
<!DOCTYPE svg PUBLIC "-//W3C//DTD SVG 1.1//EN"
 "http://www.w3.org/Graphics/SVG/1.1/DTD/svg11.dtd">
<!-- Generated by graphviz version 2.40.1 (20161225.0304)
 -->
<!-- Title: dependencies Pages: 1 -->
<svg width="1721pt" height="211pt"
 viewBox="0.00 0.00 1721.00 211.00" xmlns="http://www.w3.org/2000/svg" xmlns:xlink="http://www.w3.org/1999/xlink">
<g id="graph0" class="graph" transform="scale(1 1) rotate(0) translate(4 207)">
<title>dependencies</title>
<polygon fill="#ffffff" stroke="transparent" points="-4,4 -4,-207 1717,-207 1717,4 -4,4"/>
<text text-anchor="start" x="835.5091" y="-42.4" font-family="sans-serif" font-weight="bold" font-size="14.00" fill="#000000">Legend</text>
<polygon fill="#ffffb3" stroke="transparent" points="622.5,-10 622.5,-30 642.5,-30 642.5,-10 622.5,-10"/>
<text text-anchor="start" x="646.129" y="-15.4" font-family="sans-serif" font-size="14.00" fill="#000000"> &#160;Declarations</text>
<polygon fill="#8dd3c7" stroke="transparent" points="735.5,-10 735.5,-30 755.5,-30 755.5,-10 735.5,-10"/>
<text text-anchor="start" x="759.2251" y="-15.4" font-family="sans-serif" font-size="14.00" fill="#000000"> &#160;Module</text>
<polygon fill="#80b1d3" stroke="transparent" points="821.5,-10 821.5,-30 841.5,-30 841.5,-10 821.5,-10"/>
<text text-anchor="start" x="845.2812" y="-15.4" font-family="sans-serif" font-size="14.00" fill="#000000"> &#160;Bootstrap</text>
<polygon fill="#fdb462" stroke="transparent" points="918.5,-10 918.5,-30 938.5,-30 938.5,-10 918.5,-10"/>
<text text-anchor="start" x="942.1732" y="-15.4" font-family="sans-serif" font-size="14.00" fill="#000000"> &#160;Providers</text>
<polygon fill="#fb8072" stroke="transparent" points="1014.5,-10 1014.5,-30 1034.5,-30 1034.5,-10 1014.5,-10"/>
<text text-anchor="start" x="1038.2258" y="-15.4" font-family="sans-serif" font-size="14.00" fill="#000000"> &#160;Exports</text>
<g id="clust1" class="cluster">
<title>cluster_MenuModule</title>
<polygon fill="none" stroke="#000000" stroke-dasharray="1,5" points="8,-70 8,-195 1705,-195 1705,-70 8,-70"/>
</g>
<g id="clust2" class="cluster">
<title>cluster_MenuModule_declarations</title>
<polygon fill="none" stroke="#000000" points="438,-78 438,-130 1697,-130 1697,-78 438,-78"/>
</g>
<g id="clust10" class="cluster">
<title>cluster_MenuModule_imports</title>
<polygon fill="none" stroke="#000000" points="316,-78 316,-130 430,-130 430,-78 316,-78"/>
</g>
<g id="clust13" class="cluster">
<title>cluster_MenuModule_providers</title>
<polygon fill="none" stroke="#000000" points="16,-78 16,-130 308,-130 308,-78 16,-78"/>
</g>
<!-- MenuComponent -->
<g id="node1" class="node">
<title>MenuComponent</title>
<polygon fill="#ffffb3" stroke="#000000" points="1688.9916,-122 1575.0084,-122 1575.0084,-86 1688.9916,-86 1688.9916,-122"/>
<text text-anchor="middle" x="1632" y="-99.8" font-family="Times,serif" font-size="14.00" fill="#000000">MenuComponent</text>
</g>
<!-- MenuModule -->
<g id="node8" class="node">
<title>MenuModule</title>
<polygon fill="#8dd3c7" stroke="#000000" points="890.2092,-187 887.2092,-191 866.2092,-191 863.2092,-187 797.7908,-187 797.7908,-151 890.2092,-151 890.2092,-187"/>
<text text-anchor="middle" x="844" y="-164.8" font-family="Times,serif" font-size="14.00" fill="#000000">MenuModule</text>
</g>
<!-- MenuComponent&#45;&gt;MenuModule -->
<g id="edge1" class="edge">
<title>MenuComponent&#45;&gt;MenuModule</title>
<path fill="none" stroke="#000000" d="M1632,-122.0109C1632,-144.4852 1632,-180 1632,-180 1632,-180 900.3511,-180 900.3511,-180"/>
<polygon fill="#000000" stroke="#000000" points="900.3511,-176.5001 890.3511,-180 900.3511,-183.5001 900.3511,-176.5001"/>
</g>
<!-- MenuListComponent -->
<g id="node2" class="node">
<title>MenuListComponent</title>
<polygon fill="#ffffb3" stroke="#000000" points="1556.7702,-122 1421.2298,-122 1421.2298,-86 1556.7702,-86 1556.7702,-122"/>
<text text-anchor="middle" x="1489" y="-99.8" font-family="Times,serif" font-size="14.00" fill="#000000">MenuListComponent</text>
</g>
<!-- MenuListComponent&#45;&gt;MenuModule -->
<g id="edge2" class="edge">
<title>MenuListComponent&#45;&gt;MenuModule</title>
<path fill="none" stroke="#000000" d="M1489,-122.1289C1489,-142.5724 1489,-173 1489,-173 1489,-173 900.128,-173 900.128,-173"/>
<polygon fill="#000000" stroke="#000000" points="900.128,-169.5001 890.128,-173 900.1279,-176.5001 900.128,-169.5001"/>
</g>
<!-- MenuListEditComponent -->
<g id="node3" class="node">
<title>MenuListEditComponent</title>
<polygon fill="#ffffb3" stroke="#000000" points="1403.6038,-122 1244.3962,-122 1244.3962,-86 1403.6038,-86 1403.6038,-122"/>
<text text-anchor="middle" x="1324" y="-99.8" font-family="Times,serif" font-size="14.00" fill="#000000">MenuListEditComponent</text>
</g>
<!-- MenuListEditComponent&#45;&gt;MenuModule -->
<g id="edge3" class="edge">
<title>MenuListEditComponent&#45;&gt;MenuModule</title>
<path fill="none" stroke="#000000" d="M1324,-122.2667C1324,-140.5552 1324,-166 1324,-166 1324,-166 900.4606,-166 900.4606,-166"/>
<polygon fill="#000000" stroke="#000000" points="900.4606,-162.5001 890.4606,-166 900.4605,-169.5001 900.4606,-162.5001"/>
</g>
<!-- MenuListItemAddComponent -->
<g id="node4" class="node">
<title>MenuListItemAddComponent</title>
<polygon fill="#ffffb3" stroke="#000000" points="1226.5336,-122 1041.4664,-122 1041.4664,-86 1226.5336,-86 1226.5336,-122"/>
<text text-anchor="middle" x="1134" y="-99.8" font-family="Times,serif" font-size="14.00" fill="#000000">MenuListItemAddComponent</text>
</g>
<!-- MenuListItemAddComponent&#45;&gt;MenuModule -->
<g id="edge4" class="edge">
<title>MenuListItemAddComponent&#45;&gt;MenuModule</title>
<path fill="none" stroke="#000000" d="M1134,-122.0091C1134,-138.0494 1134,-159 1134,-159 1134,-159 900.272,-159 900.272,-159"/>
<polygon fill="#000000" stroke="#000000" points="900.2721,-155.5001 890.272,-159 900.272,-162.5001 900.2721,-155.5001"/>
</g>
<!-- MenuListItemComponent -->
<g id="node5" class="node">
<title>MenuListItemComponent</title>
<polygon fill="#ffffb3" stroke="#000000" points="1023.927,-122 862.073,-122 862.073,-86 1023.927,-86 1023.927,-122"/>
<text text-anchor="middle" x="943" y="-99.8" font-family="Times,serif" font-size="14.00" fill="#000000">MenuListItemComponent</text>
</g>
<!-- MenuListItemComponent&#45;&gt;MenuModule -->
<g id="edge5" class="edge">
<title>MenuListItemComponent&#45;&gt;MenuModule</title>
<path fill="none" stroke="#000000" d="M876.1957,-122.1061C876.1957,-122.1061 876.1957,-140.991 876.1957,-140.991"/>
<polygon fill="#000000" stroke="#000000" points="872.6957,-140.9909 876.1957,-150.991 879.6957,-140.991 872.6957,-140.9909"/>
</g>
<!-- MenuListItemDetailComponent -->
<g id="node6" class="node">
<title>MenuListItemDetailComponent</title>
<polygon fill="#ffffb3" stroke="#000000" points="843.6343,-122 648.3657,-122 648.3657,-86 843.6343,-86 843.6343,-122"/>
<text text-anchor="middle" x="746" y="-99.8" font-family="Times,serif" font-size="14.00" fill="#000000">MenuListItemDetailComponent</text>
</g>
<!-- MenuListItemDetailComponent&#45;&gt;MenuModule -->
<g id="edge6" class="edge">
<title>MenuListItemDetailComponent&#45;&gt;MenuModule</title>
<path fill="none" stroke="#000000" d="M820.8563,-122.1061C820.8563,-122.1061 820.8563,-140.991 820.8563,-140.991"/>
<polygon fill="#000000" stroke="#000000" points="817.3563,-140.9909 820.8563,-150.991 824.3563,-140.991 817.3563,-140.9909"/>
</g>
<!-- MenuListItemEditComponent -->
<g id="node7" class="node">
<title>MenuListItemEditComponent</title>
<polygon fill="#ffffb3" stroke="#000000" points="630.2604,-122 445.7396,-122 445.7396,-86 630.2604,-86 630.2604,-122"/>
<text text-anchor="middle" x="538" y="-99.8" font-family="Times,serif" font-size="14.00" fill="#000000">MenuListItemEditComponent</text>
</g>
<!-- MenuListItemEditComponent&#45;&gt;MenuModule -->
<g id="edge7" class="edge">
<title>MenuListItemEditComponent&#45;&gt;MenuModule</title>
<path fill="none" stroke="#000000" d="M538,-122.0091C538,-138.0494 538,-159 538,-159 538,-159 787.8574,-159 787.8574,-159"/>
<polygon fill="#000000" stroke="#000000" points="787.8574,-162.5001 797.8574,-159 787.8574,-155.5001 787.8574,-162.5001"/>
</g>
<!-- SharedModule -->
<g id="node9" class="node">
<title>SharedModule</title>
<polygon fill="#8dd3c7" stroke="#000000" points="422.4231,-122 419.4231,-126 398.4231,-126 395.4231,-122 323.5769,-122 323.5769,-86 422.4231,-86 422.4231,-122"/>
<text text-anchor="middle" x="373" y="-99.8" font-family="Times,serif" font-size="14.00" fill="#000000">SharedModule</text>
</g>
<!-- SharedModule&#45;&gt;MenuModule -->
<g id="edge8" class="edge">
<title>SharedModule&#45;&gt;MenuModule</title>
<path fill="none" stroke="#000000" d="M373,-122.2667C373,-140.5552 373,-166 373,-166 373,-166 787.5497,-166 787.5497,-166"/>
<polygon fill="#000000" stroke="#000000" points="787.5497,-169.5001 797.5497,-166 787.5497,-162.5001 787.5497,-169.5001"/>
</g>
<!-- MenuService -->
<g id="node10" class="node">
<title>MenuService</title>
<ellipse fill="#fdb462" stroke="#000000" cx="237" cy="-104" rx="62.5392" ry="18"/>
<text text-anchor="middle" x="237" y="-99.8" font-family="Times,serif" font-size="14.00" fill="#000000">MenuService</text>
</g>
<!-- MenuService&#45;&gt;MenuModule -->
<g id="edge9" class="edge">
<title>MenuService&#45;&gt;MenuModule</title>
<path fill="none" stroke="#000000" d="M237,-122.1289C237,-142.5724 237,-173 237,-173 237,-173 787.8781,-173 787.8781,-173"/>
<polygon fill="#000000" stroke="#000000" points="787.8782,-176.5001 797.8781,-173 787.8781,-169.5001 787.8782,-176.5001"/>
</g>
<!-- OrdersService -->
<g id="node11" class="node">
<title>OrdersService</title>
<ellipse fill="#fdb462" stroke="#000000" cx="90" cy="-104" rx="66.0281" ry="18"/>
<text text-anchor="middle" x="90" y="-99.8" font-family="Times,serif" font-size="14.00" fill="#000000">OrdersService</text>
</g>
<!-- OrdersService&#45;&gt;MenuModule -->
<g id="edge10" class="edge">
<title>OrdersService&#45;&gt;MenuModule</title>
<path fill="none" stroke="#000000" d="M90,-122.0109C90,-144.4852 90,-180 90,-180 90,-180 787.6863,-180 787.6863,-180"/>
<polygon fill="#000000" stroke="#000000" points="787.6864,-183.5001 797.6863,-180 787.6863,-176.5001 787.6864,-183.5001"/>
</g>
</g>
</svg>
