<?xml version="1.0" encoding="UTF-8" standalone="no"?>
<!DOCTYPE svg PUBLIC "-//W3C//DTD SVG 1.1//EN"
 "http://www.w3.org/Graphics/SVG/1.1/DTD/svg11.dtd">
<!-- Generated by graphviz version 2.40.1 (20161225.0304)
 -->
<!-- Title: dependencies Pages: 1 -->
<svg width="762pt" height="284pt"
 viewBox="0.00 0.00 762.00 284.00" xmlns="http://www.w3.org/2000/svg" xmlns:xlink="http://www.w3.org/1999/xlink">
<g id="graph0" class="graph" transform="scale(1 1) rotate(0) translate(4 280)">
<title>dependencies</title>
<polygon fill="#ffffff" stroke="transparent" points="-4,4 -4,-280 758,-280 758,4 -4,4"/>
<text text-anchor="start" x="356.0091" y="-42.4" font-family="sans-serif" font-weight="bold" font-size="14.00" fill="#000000">Legend</text>
<polygon fill="#ffffb3" stroke="transparent" points="143,-10 143,-30 163,-30 163,-10 143,-10"/>
<text text-anchor="start" x="166.629" y="-15.4" font-family="sans-serif" font-size="14.00" fill="#000000"> &#160;Declarations</text>
<polygon fill="#8dd3c7" stroke="transparent" points="256,-10 256,-30 276,-30 276,-10 256,-10"/>
<text text-anchor="start" x="279.7251" y="-15.4" font-family="sans-serif" font-size="14.00" fill="#000000"> &#160;Module</text>
<polygon fill="#80b1d3" stroke="transparent" points="342,-10 342,-30 362,-30 362,-10 342,-10"/>
<text text-anchor="start" x="365.7812" y="-15.4" font-family="sans-serif" font-size="14.00" fill="#000000"> &#160;Bootstrap</text>
<polygon fill="#fdb462" stroke="transparent" points="439,-10 439,-30 459,-30 459,-10 439,-10"/>
<text text-anchor="start" x="462.6732" y="-15.4" font-family="sans-serif" font-size="14.00" fill="#000000"> &#160;Providers</text>
<polygon fill="#fb8072" stroke="transparent" points="535,-10 535,-30 555,-30 555,-10 535,-10"/>
<text text-anchor="start" x="558.7258" y="-15.4" font-family="sans-serif" font-size="14.00" fill="#000000"> &#160;Exports</text>
<g id="clust1" class="cluster">
<title>cluster_AuthModule</title>
<polygon fill="none" stroke="#000000" stroke-dasharray="1,5" points="8,-70 8,-268 746,-268 746,-70 8,-70"/>
</g>
<g id="clust2" class="cluster">
<title>cluster_AuthModule_declarations</title>
<polygon fill="none" stroke="#000000" points="465,-78 465,-130 738,-130 738,-78 465,-78"/>
</g>
<g id="clust5" class="cluster">
<title>cluster_AuthModule_imports</title>
<polygon fill="none" stroke="#000000" points="343,-78 343,-130 457,-130 457,-78 343,-78"/>
</g>
<g id="clust6" class="cluster">
<title>cluster_AuthModule_exports</title>
<polygon fill="none" stroke="#000000" points="260,-208 260,-260 540,-260 540,-208 260,-208"/>
</g>
<g id="clust8" class="cluster">
<title>cluster_AuthModule_providers</title>
<polygon fill="none" stroke="#000000" points="16,-78 16,-130 335,-130 335,-78 16,-78"/>
</g>
<!-- SigninComponent -->
<g id="node1" class="node">
<title>SigninComponent</title>
<polygon fill="#ffffb3" stroke="#000000" points="729.8962,-122 612.1038,-122 612.1038,-86 729.8962,-86 729.8962,-122"/>
<text text-anchor="middle" x="671" y="-99.8" font-family="Times,serif" font-size="14.00" fill="#000000">SigninComponent</text>
</g>
<!-- AuthModule -->
<g id="node3" class="node">
<title>AuthModule</title>
<polygon fill="#8dd3c7" stroke="#000000" points="443.5482,-187 440.5482,-191 419.5482,-191 416.5482,-187 356.4518,-187 356.4518,-151 443.5482,-151 443.5482,-187"/>
<text text-anchor="middle" x="400" y="-164.8" font-family="Times,serif" font-size="14.00" fill="#000000">AuthModule</text>
</g>
<!-- SigninComponent&#45;&gt;AuthModule -->
<g id="edge1" class="edge">
<title>SigninComponent&#45;&gt;AuthModule</title>
<path fill="none" stroke="#000000" d="M671,-122.2843C671,-143.3211 671,-175 671,-175 671,-175 453.842,-175 453.842,-175"/>
<polygon fill="#000000" stroke="#000000" points="453.8421,-171.5001 443.842,-175 453.842,-178.5001 453.8421,-171.5001"/>
</g>
<!-- SignupComponent -->
<g id="node2" class="node">
<title>SignupComponent</title>
<polygon fill="#ffffb3" stroke="#000000" points="594.5056,-122 473.4944,-122 473.4944,-86 594.5056,-86 594.5056,-122"/>
<text text-anchor="middle" x="534" y="-99.8" font-family="Times,serif" font-size="14.00" fill="#000000">SignupComponent</text>
</g>
<!-- SignupComponent&#45;&gt;AuthModule -->
<g id="edge2" class="edge">
<title>SignupComponent&#45;&gt;AuthModule</title>
<path fill="none" stroke="#000000" d="M502.5977,-122.0225C502.5977,-139.3734 502.5977,-163 502.5977,-163 502.5977,-163 453.8082,-163 453.8082,-163"/>
<polygon fill="#000000" stroke="#000000" points="453.8083,-159.5001 443.8082,-163 453.8082,-166.5001 453.8083,-159.5001"/>
</g>
<!-- SigninComponent  -->
<g id="node5" class="node">
<title>SigninComponent </title>
<polygon fill="#fb8072" stroke="#000000" points="531.8968,-252 410.1032,-252 410.1032,-216 531.8968,-216 531.8968,-252"/>
<text text-anchor="middle" x="471" y="-229.8" font-family="Times,serif" font-size="14.00" fill="#000000">SigninComponent </text>
</g>
<!-- AuthModule&#45;&gt;SigninComponent  -->
<g id="edge4" class="edge">
<title>AuthModule&#45;&gt;SigninComponent </title>
<path fill="none" stroke="#000000" stroke-dasharray="5,2" d="M427.0377,-187.1061C427.0377,-187.1061 427.0377,-205.991 427.0377,-205.991"/>
<polygon fill="#000000" stroke="#000000" points="423.5378,-205.9909 427.0377,-215.991 430.5378,-205.991 423.5378,-205.9909"/>
</g>
<!-- SignupComponent  -->
<g id="node6" class="node">
<title>SignupComponent </title>
<polygon fill="#fb8072" stroke="#000000" points="392.0066,-252 267.9934,-252 267.9934,-216 392.0066,-216 392.0066,-252"/>
<text text-anchor="middle" x="330" y="-229.8" font-family="Times,serif" font-size="14.00" fill="#000000">SignupComponent </text>
</g>
<!-- AuthModule&#45;&gt;SignupComponent  -->
<g id="edge5" class="edge">
<title>AuthModule&#45;&gt;SignupComponent </title>
<path fill="none" stroke="#000000" stroke-dasharray="5,2" d="M374.2397,-187.1061C374.2397,-187.1061 374.2397,-205.991 374.2397,-205.991"/>
<polygon fill="#000000" stroke="#000000" points="370.7397,-205.9909 374.2397,-215.991 377.7397,-205.991 370.7397,-205.9909"/>
</g>
<!-- SharedModule -->
<g id="node4" class="node">
<title>SharedModule</title>
<polygon fill="#8dd3c7" stroke="#000000" points="449.4231,-122 446.4231,-126 425.4231,-126 422.4231,-122 350.5769,-122 350.5769,-86 449.4231,-86 449.4231,-122"/>
<text text-anchor="middle" x="400" y="-99.8" font-family="Times,serif" font-size="14.00" fill="#000000">SharedModule</text>
</g>
<!-- SharedModule&#45;&gt;AuthModule -->
<g id="edge3" class="edge">
<title>SharedModule&#45;&gt;AuthModule</title>
<path fill="none" stroke="#000000" d="M400,-122.1061C400,-122.1061 400,-140.991 400,-140.991"/>
<polygon fill="#000000" stroke="#000000" points="396.5001,-140.9909 400,-150.991 403.5001,-140.991 396.5001,-140.9909"/>
</g>
<!-- AuthGuardService -->
<g id="node7" class="node">
<title>AuthGuardService</title>
<ellipse fill="#fdb462" stroke="#000000" cx="244" cy="-104" rx="83.3674" ry="18"/>
<text text-anchor="middle" x="244" y="-99.8" font-family="Times,serif" font-size="14.00" fill="#000000">AuthGuardService</text>
</g>
<!-- AuthGuardService&#45;&gt;AuthModule -->
<g id="edge6" class="edge">
<title>AuthGuardService&#45;&gt;AuthModule</title>
<path fill="none" stroke="#000000" d="M297.5904,-117.9822C297.5904,-135.4293 297.5904,-163 297.5904,-163 297.5904,-163 346.2721,-163 346.2721,-163"/>
<polygon fill="#000000" stroke="#000000" points="346.2721,-166.5001 356.2721,-163 346.272,-159.5001 346.2721,-166.5001"/>
</g>
<!-- AuthService -->
<g id="node8" class="node">
<title>AuthService</title>
<ellipse fill="#fdb462" stroke="#000000" cx="83" cy="-104" rx="59.1083" ry="18"/>
<text text-anchor="middle" x="83" y="-99.8" font-family="Times,serif" font-size="14.00" fill="#000000">AuthService</text>
</g>
<!-- AuthService&#45;&gt;AuthModule -->
<g id="edge7" class="edge">
<title>AuthService&#45;&gt;AuthModule</title>
<path fill="none" stroke="#000000" d="M83,-122.2843C83,-143.3211 83,-175 83,-175 83,-175 346.2553,-175 346.2553,-175"/>
<polygon fill="#000000" stroke="#000000" points="346.2554,-178.5001 356.2553,-175 346.2553,-171.5001 346.2554,-178.5001"/>
</g>
</g>
</svg>
