<?xml version="1.0" encoding="UTF-8" standalone="no"?>
<!DOCTYPE svg PUBLIC "-//W3C//DTD SVG 1.1//EN"
 "http://www.w3.org/Graphics/SVG/1.1/DTD/svg11.dtd">
<!-- Generated by graphviz version 2.40.1 (20161225.0304)
 -->
<!-- Title: dependencies Pages: 1 -->
<svg width="1852pt" height="211pt"
 viewBox="0.00 0.00 1852.00 211.00" xmlns="http://www.w3.org/2000/svg" xmlns:xlink="http://www.w3.org/1999/xlink">
<g id="graph0" class="graph" transform="scale(1 1) rotate(0) translate(4 207)">
<title>dependencies</title>
<polygon fill="#ffffff" stroke="transparent" points="-4,4 -4,-207 1848,-207 1848,4 -4,4"/>
<text text-anchor="start" x="901.0091" y="-42.4" font-family="sans-serif" font-weight="bold" font-size="14.00" fill="#000000">Legend</text>
<polygon fill="#ffffb3" stroke="transparent" points="688,-10 688,-30 708,-30 708,-10 688,-10"/>
<text text-anchor="start" x="711.629" y="-15.4" font-family="sans-serif" font-size="14.00" fill="#000000"> &#160;Declarations</text>
<polygon fill="#8dd3c7" stroke="transparent" points="801,-10 801,-30 821,-30 821,-10 801,-10"/>
<text text-anchor="start" x="824.7251" y="-15.4" font-family="sans-serif" font-size="14.00" fill="#000000"> &#160;Module</text>
<polygon fill="#80b1d3" stroke="transparent" points="887,-10 887,-30 907,-30 907,-10 887,-10"/>
<text text-anchor="start" x="910.7812" y="-15.4" font-family="sans-serif" font-size="14.00" fill="#000000"> &#160;Bootstrap</text>
<polygon fill="#fdb462" stroke="transparent" points="984,-10 984,-30 1004,-30 1004,-10 984,-10"/>
<text text-anchor="start" x="1007.6732" y="-15.4" font-family="sans-serif" font-size="14.00" fill="#000000"> &#160;Providers</text>
<polygon fill="#fb8072" stroke="transparent" points="1080,-10 1080,-30 1100,-30 1100,-10 1080,-10"/>
<text text-anchor="start" x="1103.7258" y="-15.4" font-family="sans-serif" font-size="14.00" fill="#000000"> &#160;Exports</text>
<g id="clust1" class="cluster">
<title>cluster_ProfileModule</title>
<polygon fill="none" stroke="#000000" stroke-dasharray="1,5" points="8,-70 8,-195 1836,-195 1836,-70 8,-70"/>
</g>
<g id="clust2" class="cluster">
<title>cluster_ProfileModule_declarations</title>
<polygon fill="none" stroke="#000000" points="628,-78 628,-130 1828,-130 1828,-78 628,-78"/>
</g>
<g id="clust10" class="cluster">
<title>cluster_ProfileModule_imports</title>
<polygon fill="none" stroke="#000000" points="352,-78 352,-130 620,-130 620,-78 352,-78"/>
</g>
<g id="clust13" class="cluster">
<title>cluster_ProfileModule_providers</title>
<polygon fill="none" stroke="#000000" points="16,-78 16,-130 344,-130 344,-78 16,-78"/>
</g>
<!-- AddressFormComponent -->
<g id="node1" class="node">
<title>AddressFormComponent</title>
<polygon fill="#ffffb3" stroke="#000000" points="1819.5379,-122 1662.4621,-122 1662.4621,-86 1819.5379,-86 1819.5379,-122"/>
<text text-anchor="middle" x="1741" y="-99.8" font-family="Times,serif" font-size="14.00" fill="#000000">AddressFormComponent</text>
</g>
<!-- ProfileModule -->
<g id="node8" class="node">
<title>ProfileModule</title>
<polygon fill="#8dd3c7" stroke="#000000" points="924.65,-187 921.65,-191 900.65,-191 897.65,-187 827.35,-187 827.35,-151 924.65,-151 924.65,-187"/>
<text text-anchor="middle" x="876" y="-164.8" font-family="Times,serif" font-size="14.00" fill="#000000">ProfileModule</text>
</g>
<!-- AddressFormComponent&#45;&gt;ProfileModule -->
<g id="edge1" class="edge">
<title>AddressFormComponent&#45;&gt;ProfileModule</title>
<path fill="none" stroke="#000000" d="M1741,-122.0908C1741,-145.1328 1741,-182 1741,-182 1741,-182 934.6717,-182 934.6717,-182"/>
<polygon fill="#000000" stroke="#000000" points="934.6717,-178.5001 924.6717,-182 934.6716,-185.5001 934.6717,-178.5001"/>
</g>
<!-- AddressesComponent -->
<g id="node2" class="node">
<title>AddressesComponent</title>
<polygon fill="#ffffb3" stroke="#000000" points="1644.3627,-122 1505.6373,-122 1505.6373,-86 1644.3627,-86 1644.3627,-122"/>
<text text-anchor="middle" x="1575" y="-99.8" font-family="Times,serif" font-size="14.00" fill="#000000">AddressesComponent</text>
</g>
<!-- AddressesComponent&#45;&gt;ProfileModule -->
<g id="edge2" class="edge">
<title>AddressesComponent&#45;&gt;ProfileModule</title>
<path fill="none" stroke="#000000" d="M1575,-122.2843C1575,-143.3211 1575,-175 1575,-175 1575,-175 934.8745,-175 934.8745,-175"/>
<polygon fill="#000000" stroke="#000000" points="934.8745,-171.5001 924.8745,-175 934.8745,-178.5001 934.8745,-171.5001"/>
</g>
<!-- FavouriteItemComponent -->
<g id="node3" class="node">
<title>FavouriteItemComponent</title>
<polygon fill="#ffffb3" stroke="#000000" points="1487.1428,-122 1326.8572,-122 1326.8572,-86 1487.1428,-86 1487.1428,-122"/>
<text text-anchor="middle" x="1407" y="-99.8" font-family="Times,serif" font-size="14.00" fill="#000000">FavouriteItemComponent</text>
</g>
<!-- FavouriteItemComponent&#45;&gt;ProfileModule -->
<g id="edge3" class="edge">
<title>FavouriteItemComponent&#45;&gt;ProfileModule</title>
<path fill="none" stroke="#000000" d="M1407,-122.1061C1407,-141.3391 1407,-169 1407,-169 1407,-169 935.0034,-169 935.0034,-169"/>
<polygon fill="#000000" stroke="#000000" points="935.0035,-165.5001 925.0034,-169 935.0034,-172.5001 935.0035,-165.5001"/>
</g>
<!-- FavouritesComponent -->
<g id="node4" class="node">
<title>FavouritesComponent</title>
<polygon fill="#ffffb3" stroke="#000000" points="1308.4313,-122 1167.5687,-122 1167.5687,-86 1308.4313,-86 1308.4313,-122"/>
<text text-anchor="middle" x="1238" y="-99.8" font-family="Times,serif" font-size="14.00" fill="#000000">FavouritesComponent</text>
</g>
<!-- FavouritesComponent&#45;&gt;ProfileModule -->
<g id="edge4" class="edge">
<title>FavouritesComponent&#45;&gt;ProfileModule</title>
<path fill="none" stroke="#000000" d="M1238,-122.0225C1238,-139.3734 1238,-163 1238,-163 1238,-163 934.8209,-163 934.8209,-163"/>
<polygon fill="#000000" stroke="#000000" points="934.821,-159.5001 924.8209,-163 934.8209,-166.5001 934.821,-159.5001"/>
</g>
<!-- PersonalInformationComponent -->
<g id="node5" class="node">
<title>PersonalInformationComponent</title>
<polygon fill="#ffffb3" stroke="#000000" points="1150.4086,-122 953.5914,-122 953.5914,-86 1150.4086,-86 1150.4086,-122"/>
<text text-anchor="middle" x="1052" y="-99.8" font-family="Times,serif" font-size="14.00" fill="#000000">PersonalInformationComponent</text>
</g>
<!-- PersonalInformationComponent&#45;&gt;ProfileModule -->
<g id="edge5" class="edge">
<title>PersonalInformationComponent&#45;&gt;ProfileModule</title>
<path fill="none" stroke="#000000" d="M1052,-122.2396C1052,-137.5706 1052,-157 1052,-157 1052,-157 935.0258,-157 935.0258,-157"/>
<polygon fill="#000000" stroke="#000000" points="935.0258,-153.5001 925.0258,-157 935.0258,-160.5001 935.0258,-153.5001"/>
</g>
<!-- ProfileComponent -->
<g id="node6" class="node">
<title>ProfileComponent</title>
<polygon fill="#ffffb3" stroke="#000000" points="935.9328,-122 816.0672,-122 816.0672,-86 935.9328,-86 935.9328,-122"/>
<text text-anchor="middle" x="876" y="-99.8" font-family="Times,serif" font-size="14.00" fill="#000000">ProfileComponent</text>
</g>
<!-- ProfileComponent&#45;&gt;ProfileModule -->
<g id="edge6" class="edge">
<title>ProfileComponent&#45;&gt;ProfileModule</title>
<path fill="none" stroke="#000000" d="M876,-122.1061C876,-122.1061 876,-140.991 876,-140.991"/>
<polygon fill="#000000" stroke="#000000" points="872.5001,-140.9909 876,-150.991 879.5001,-140.991 872.5001,-140.9909"/>
</g>
<!-- SingleAddressComponent -->
<g id="node7" class="node">
<title>SingleAddressComponent</title>
<polygon fill="#ffffb3" stroke="#000000" points="798.4818,-122 635.5182,-122 635.5182,-86 798.4818,-86 798.4818,-122"/>
<text text-anchor="middle" x="717" y="-99.8" font-family="Times,serif" font-size="14.00" fill="#000000">SingleAddressComponent</text>
</g>
<!-- SingleAddressComponent&#45;&gt;ProfileModule -->
<g id="edge7" class="edge">
<title>SingleAddressComponent&#45;&gt;ProfileModule</title>
<path fill="none" stroke="#000000" d="M717,-122.2396C717,-137.5706 717,-157 717,-157 717,-157 816.9974,-157 816.9974,-157"/>
<polygon fill="#000000" stroke="#000000" points="816.9974,-160.5001 826.9974,-157 816.9973,-153.5001 816.9974,-160.5001"/>
</g>
<!-- ProfileRoutesModule -->
<g id="node9" class="node">
<title>ProfileRoutesModule</title>
<polygon fill="#8dd3c7" stroke="#000000" points="612.0366,-122 609.0366,-126 588.0366,-126 585.0366,-122 475.9634,-122 475.9634,-86 612.0366,-86 612.0366,-122"/>
<text text-anchor="middle" x="544" y="-99.8" font-family="Times,serif" font-size="14.00" fill="#000000">ProfileRoutesModule</text>
</g>
<!-- ProfileRoutesModule&#45;&gt;ProfileModule -->
<g id="edge8" class="edge">
<title>ProfileRoutesModule&#45;&gt;ProfileModule</title>
<path fill="none" stroke="#000000" d="M544,-122.0225C544,-139.3734 544,-163 544,-163 544,-163 817.0123,-163 817.0123,-163"/>
<polygon fill="#000000" stroke="#000000" points="817.0123,-166.5001 827.0123,-163 817.0122,-159.5001 817.0123,-166.5001"/>
</g>
<!-- SharedModule -->
<g id="node10" class="node">
<title>SharedModule</title>
<polygon fill="#8dd3c7" stroke="#000000" points="458.4231,-122 455.4231,-126 434.4231,-126 431.4231,-122 359.5769,-122 359.5769,-86 458.4231,-86 458.4231,-122"/>
<text text-anchor="middle" x="409" y="-99.8" font-family="Times,serif" font-size="14.00" fill="#000000">SharedModule</text>
</g>
<!-- SharedModule&#45;&gt;ProfileModule -->
<g id="edge9" class="edge">
<title>SharedModule&#45;&gt;ProfileModule</title>
<path fill="none" stroke="#000000" d="M409,-122.1061C409,-141.3391 409,-169 409,-169 409,-169 817.3444,-169 817.3444,-169"/>
<polygon fill="#000000" stroke="#000000" points="817.3444,-172.5001 827.3444,-169 817.3444,-165.5001 817.3444,-172.5001"/>
</g>
<!-- FavouritesService -->
<g id="node11" class="node">
<title>FavouritesService</title>
<ellipse fill="#fdb462" stroke="#000000" cx="255" cy="-104" rx="80.5142" ry="18"/>
<text text-anchor="middle" x="255" y="-99.8" font-family="Times,serif" font-size="14.00" fill="#000000">FavouritesService</text>
</g>
<!-- FavouritesService&#45;&gt;ProfileModule -->
<g id="edge10" class="edge">
<title>FavouritesService&#45;&gt;ProfileModule</title>
<path fill="none" stroke="#000000" d="M255,-122.2843C255,-143.3211 255,-175 255,-175 255,-175 817.2712,-175 817.2712,-175"/>
<polygon fill="#000000" stroke="#000000" points="817.2712,-178.5001 827.2712,-175 817.2711,-171.5001 817.2712,-178.5001"/>
</g>
<!-- ProfileService -->
<g id="node12" class="node">
<title>ProfileService</title>
<ellipse fill="#fdb462" stroke="#000000" cx="90" cy="-104" rx="66.0454" ry="18"/>
<text text-anchor="middle" x="90" y="-99.8" font-family="Times,serif" font-size="14.00" fill="#000000">ProfileService</text>
</g>
<!-- ProfileService&#45;&gt;ProfileModule -->
<g id="edge11" class="edge">
<title>ProfileService&#45;&gt;ProfileModule</title>
<path fill="none" stroke="#000000" d="M90,-122.0908C90,-145.1328 90,-182 90,-182 90,-182 817.1292,-182 817.1292,-182"/>
<polygon fill="#000000" stroke="#000000" points="817.1292,-185.5001 827.1292,-182 817.1291,-178.5001 817.1292,-185.5001"/>
</g>
</g>
</svg>
