<?xml version="1.0" encoding="UTF-8" standalone="no"?>
<!DOCTYPE svg PUBLIC "-//W3C//DTD SVG 1.1//EN"
 "http://www.w3.org/Graphics/SVG/1.1/DTD/svg11.dtd">
<!-- Generated by graphviz version 2.40.1 (20161225.0304)
 -->
<!-- Title: dependencies Pages: 1 -->
<svg width="1184pt" height="211pt"
 viewBox="0.00 0.00 1184.00 211.00" xmlns="http://www.w3.org/2000/svg" xmlns:xlink="http://www.w3.org/1999/xlink">
<g id="graph0" class="graph" transform="scale(1 1) rotate(0) translate(4 207)">
<title>dependencies</title>
<polygon fill="#ffffff" stroke="transparent" points="-4,4 -4,-207 1180,-207 1180,4 -4,4"/>
<text text-anchor="start" x="567.0091" y="-42.4" font-family="sans-serif" font-weight="bold" font-size="14.00" fill="#000000">Legend</text>
<polygon fill="#ffffb3" stroke="transparent" points="354,-10 354,-30 374,-30 374,-10 354,-10"/>
<text text-anchor="start" x="377.629" y="-15.4" font-family="sans-serif" font-size="14.00" fill="#000000"> &#160;Declarations</text>
<polygon fill="#8dd3c7" stroke="transparent" points="467,-10 467,-30 487,-30 487,-10 467,-10"/>
<text text-anchor="start" x="490.7251" y="-15.4" font-family="sans-serif" font-size="14.00" fill="#000000"> &#160;Module</text>
<polygon fill="#80b1d3" stroke="transparent" points="553,-10 553,-30 573,-30 573,-10 553,-10"/>
<text text-anchor="start" x="576.7812" y="-15.4" font-family="sans-serif" font-size="14.00" fill="#000000"> &#160;Bootstrap</text>
<polygon fill="#fdb462" stroke="transparent" points="650,-10 650,-30 670,-30 670,-10 650,-10"/>
<text text-anchor="start" x="673.6732" y="-15.4" font-family="sans-serif" font-size="14.00" fill="#000000"> &#160;Providers</text>
<polygon fill="#fb8072" stroke="transparent" points="746,-10 746,-30 766,-30 766,-10 746,-10"/>
<text text-anchor="start" x="769.7258" y="-15.4" font-family="sans-serif" font-size="14.00" fill="#000000"> &#160;Exports</text>
<g id="clust1" class="cluster">
<title>cluster_OrdersModule</title>
<polygon fill="none" stroke="#000000" stroke-dasharray="1,5" points="8,-70 8,-195 1168,-195 1168,-70 8,-70"/>
</g>
<g id="clust2" class="cluster">
<title>cluster_OrdersModule_declarations</title>
<polygon fill="none" stroke="#000000" points="294,-78 294,-130 1160,-130 1160,-78 294,-78"/>
</g>
<g id="clust8" class="cluster">
<title>cluster_OrdersModule_imports</title>
<polygon fill="none" stroke="#000000" points="172,-78 172,-130 286,-130 286,-78 172,-78"/>
</g>
<g id="clust11" class="cluster">
<title>cluster_OrdersModule_providers</title>
<polygon fill="none" stroke="#000000" points="16,-78 16,-130 164,-130 164,-78 16,-78"/>
</g>
<!-- ConfirmationComponent -->
<g id="node1" class="node">
<title>ConfirmationComponent</title>
<polygon fill="#ffffb3" stroke="#000000" points="1152.2674,-122 995.7326,-122 995.7326,-86 1152.2674,-86 1152.2674,-122"/>
<text text-anchor="middle" x="1074" y="-99.8" font-family="Times,serif" font-size="14.00" fill="#000000">ConfirmationComponent</text>
</g>
<!-- OrdersModule -->
<g id="node6" class="node">
<title>OrdersModule</title>
<polygon fill="#8dd3c7" stroke="#000000" points="632.6375,-187 629.6375,-191 608.6375,-191 605.6375,-187 535.3625,-187 535.3625,-151 632.6375,-151 632.6375,-187"/>
<text text-anchor="middle" x="584" y="-164.8" font-family="Times,serif" font-size="14.00" fill="#000000">OrdersModule</text>
</g>
<!-- ConfirmationComponent&#45;&gt;OrdersModule -->
<g id="edge1" class="edge">
<title>ConfirmationComponent&#45;&gt;OrdersModule</title>
<path fill="none" stroke="#000000" d="M1074,-122.2921C1074,-144.2057 1074,-178 1074,-178 1074,-178 642.7745,-178 642.7745,-178"/>
<polygon fill="#000000" stroke="#000000" points="642.7745,-174.5001 632.7745,-178 642.7744,-181.5001 642.7745,-174.5001"/>
</g>
<!-- DeliveryTypeComponent -->
<g id="node2" class="node">
<title>DeliveryTypeComponent</title>
<polygon fill="#ffffb3" stroke="#000000" points="977.5772,-122 818.4228,-122 818.4228,-86 977.5772,-86 977.5772,-122"/>
<text text-anchor="middle" x="898" y="-99.8" font-family="Times,serif" font-size="14.00" fill="#000000">DeliveryTypeComponent</text>
</g>
<!-- DeliveryTypeComponent&#45;&gt;OrdersModule -->
<g id="edge2" class="edge">
<title>DeliveryTypeComponent&#45;&gt;OrdersModule</title>
<path fill="none" stroke="#000000" d="M898,-122.1061C898,-141.3391 898,-169 898,-169 898,-169 642.718,-169 642.718,-169"/>
<polygon fill="#000000" stroke="#000000" points="642.718,-165.5001 632.718,-169 642.7179,-172.5001 642.718,-165.5001"/>
</g>
<!-- OrdersComponent -->
<g id="node3" class="node">
<title>OrdersComponent</title>
<polygon fill="#ffffb3" stroke="#000000" points="800.9201,-122 681.0799,-122 681.0799,-86 800.9201,-86 800.9201,-122"/>
<text text-anchor="middle" x="741" y="-99.8" font-family="Times,serif" font-size="14.00" fill="#000000">OrdersComponent</text>
</g>
<!-- OrdersComponent&#45;&gt;OrdersModule -->
<g id="edge3" class="edge">
<title>OrdersComponent&#45;&gt;OrdersModule</title>
<path fill="none" stroke="#000000" d="M741,-122.027C741,-138.3976 741,-160 741,-160 741,-160 642.8152,-160 642.8152,-160"/>
<polygon fill="#000000" stroke="#000000" points="642.8152,-156.5001 632.8152,-160 642.8151,-163.5001 642.8152,-156.5001"/>
</g>
<!-- ShoppingCartComponent -->
<g id="node4" class="node">
<title>ShoppingCartComponent</title>
<polygon fill="#ffffb3" stroke="#000000" points="663.608,-122 504.392,-122 504.392,-86 663.608,-86 663.608,-122"/>
<text text-anchor="middle" x="584" y="-99.8" font-family="Times,serif" font-size="14.00" fill="#000000">ShoppingCartComponent</text>
</g>
<!-- ShoppingCartComponent&#45;&gt;OrdersModule -->
<g id="edge4" class="edge">
<title>ShoppingCartComponent&#45;&gt;OrdersModule</title>
<path fill="none" stroke="#000000" d="M584,-122.1061C584,-122.1061 584,-140.991 584,-140.991"/>
<polygon fill="#000000" stroke="#000000" points="580.5001,-140.9909 584,-150.991 587.5001,-140.991 580.5001,-140.9909"/>
</g>
<!-- ShoppingCartItemComponent -->
<g id="node5" class="node">
<title>ShoppingCartItemComponent</title>
<polygon fill="#ffffb3" stroke="#000000" points="486.2646,-122 301.7354,-122 301.7354,-86 486.2646,-86 486.2646,-122"/>
<text text-anchor="middle" x="394" y="-99.8" font-family="Times,serif" font-size="14.00" fill="#000000">ShoppingCartItemComponent</text>
</g>
<!-- ShoppingCartItemComponent&#45;&gt;OrdersModule -->
<g id="edge5" class="edge">
<title>ShoppingCartItemComponent&#45;&gt;OrdersModule</title>
<path fill="none" stroke="#000000" d="M394,-122.027C394,-138.3976 394,-160 394,-160 394,-160 525.0703,-160 525.0703,-160"/>
<polygon fill="#000000" stroke="#000000" points="525.0703,-163.5001 535.0703,-160 525.0702,-156.5001 525.0703,-163.5001"/>
</g>
<!-- SharedModule -->
<g id="node7" class="node">
<title>SharedModule</title>
<polygon fill="#8dd3c7" stroke="#000000" points="278.4231,-122 275.4231,-126 254.4231,-126 251.4231,-122 179.5769,-122 179.5769,-86 278.4231,-86 278.4231,-122"/>
<text text-anchor="middle" x="229" y="-99.8" font-family="Times,serif" font-size="14.00" fill="#000000">SharedModule</text>
</g>
<!-- SharedModule&#45;&gt;OrdersModule -->
<g id="edge6" class="edge">
<title>SharedModule&#45;&gt;OrdersModule</title>
<path fill="none" stroke="#000000" d="M229,-122.1061C229,-141.3391 229,-169 229,-169 229,-169 525.0115,-169 525.0115,-169"/>
<polygon fill="#000000" stroke="#000000" points="525.0115,-172.5001 535.0115,-169 525.0115,-165.5001 525.0115,-172.5001"/>
</g>
<!-- OrdersService -->
<g id="node8" class="node">
<title>OrdersService</title>
<ellipse fill="#fdb462" stroke="#000000" cx="90" cy="-104" rx="66.0281" ry="18"/>
<text text-anchor="middle" x="90" y="-99.8" font-family="Times,serif" font-size="14.00" fill="#000000">OrdersService</text>
</g>
<!-- OrdersService&#45;&gt;OrdersModule -->
<g id="edge7" class="edge">
<title>OrdersService&#45;&gt;OrdersModule</title>
<path fill="none" stroke="#000000" d="M90,-122.2921C90,-144.2057 90,-178 90,-178 90,-178 525.2814,-178 525.2814,-178"/>
<polygon fill="#000000" stroke="#000000" points="525.2815,-181.5001 535.2814,-178 525.2814,-174.5001 525.2815,-181.5001"/>
</g>
</g>
</svg>
