<?xml version="1.0" encoding="iso-8859-1"?>
<!-- Generator: Adobe Illustrator 19.0.0, SVG Export Plug-In . SVG Version: 6.00 Build 0)  -->
<svg xmlns="http://www.w3.org/2000/svg" xmlns:xlink="http://www.w3.org/1999/xlink" version="1.1" id="Capa_1" x="0px" y="0px" viewBox="0 0 512.002 512.002" style="enable-background:new 0 0 512.002 512.002;" xml:space="preserve" width="512px" height="512px">
<g>
	<g>
		<path d="M509.923,206.932c-16.878-71.54-88.018-150.273-135.491-184.999c-5.377-3.903-11.863-5.982-18.507-5.931    c-13.23,0.039-25.046,8.287-29.643,20.693l-21.065,57.147l-80.761,42.633c-8.679-7.318-19.505-12.165-31.403-13.454    c5.663-38.356,30.945-71.342,67.149-86.55l-8.405-19.605c-44.774,18.562-75.489,60.101-80.497,107.85    c-24.945,6.755-43.3,29.538-43.3,56.62c0,1.966,0.101,3.908,0.29,5.824L5.686,251.874c-3.551,1.875-5.748,5.585-5.685,9.6v223.861    c0,5.891,4.776,10.667,10.667,10.667h490.667c5.891,0,10.667-4.776,10.667-10.667V218.178    C512.001,214.278,511.276,210.474,509.923,206.932z M346.304,44.045c0.195-0.447,0.421-0.88,0.675-1.296    c3.111-5.099,9.767-6.711,14.866-3.6c39.21,28.666,95.447,88.728,119.237,147.524c-10.376-0.185-20.627,4.746-26.811,14.022    l-24.275,36.416c-12.469-33.685-42.994-98.925-103.224-140.042L346.304,44.045z M186.667,144.002    c20.619,0,37.333,16.715,37.333,37.333c0,20.618-16.715,37.333-37.333,37.333c-20.619,0-37.333-16.715-37.333-37.333    C149.334,160.717,166.048,144.002,186.667,144.002z M134.438,208.045c9.72,18.968,29.451,31.957,52.229,31.957    c32.386-0.035,58.631-26.281,58.667-58.667c0-10.143-2.575-19.684-7.106-28.007l75.04-39.612    c59.699,40.016,88.781,108.254,98.838,136.953H53.728L134.438,208.045z M21.334,357.335h38.784c-5.419,13.227-16.96,32-38.784,32    V357.335z M490.667,474.672H21.334v-0.003v-21.333h106.667v-21.333H21.334V410.67c40.672,0,59.509-40.533,63.787-61.867    c0.143-0.703,0.216-1.418,0.216-2.135c-0.001-5.891-4.778-10.666-10.669-10.664H21.334v-21.333h106.667v-21.333H21.334v-21.333    h405.333c3.566,0,6.896-1.781,8.875-4.747l36.48-54.72c1.887-2.833,5.066-4.536,8.471-4.535c3.99,0.001,7.434,2.303,9.101,5.647    c0.401,1.833,0.755,3.659,1.073,5.478V474.672z" fill="#FFFFFF"/>
	</g>
</g>
<g>
	<g>
		
			<rect x="293.35" y="143.131" transform="matrix(0.3162 -0.9487 0.9487 0.3162 56.1012 397.8243)" width="21.333" height="33.728" fill="#FFFFFF"/>
	</g>
</g>
<g>
	<g>
		
			<rect x="265.787" y="192.004" transform="matrix(0.9486 -0.3164 0.3164 0.9486 -49.6049 99.8457)" width="33.727" height="21.332" fill="#FFFFFF"/>
	</g>
</g>
<g>
	<g>
		<rect x="309.329" y="218.671" width="32" height="21.333" fill="#FFFFFF"/>
	</g>
</g>
<g>
	<g>
		<rect x="330.669" y="186.671" width="32" height="21.333" fill="#FFFFFF"/>
	</g>
</g>
<g>
	<g>
		<path d="M369.505,71.853L355.83,88.237c0.629,0.469,62.176,52.149,82.261,102.4l19.819-7.851    C435.819,127.543,372.203,74.093,369.505,71.853z" fill="#FFFFFF"/>
	</g>
</g>
<g>
	<g>
		<rect x="181.339" y="176.001" width="21.333" height="21.333" fill="#FFFFFF"/>
	</g>
</g>
<g>
	<g>
		<path d="M223.787,397.868c-4.277-21.333-23.125-61.867-63.787-61.867c-40.662,0-59.509,40.533-63.787,61.867    c-0.143,0.703-0.216,1.418-0.216,2.135c0.001,5.891,4.778,10.666,10.669,10.665h106.667c0.718,0.001,1.433-0.071,2.136-0.215    C221.241,409.275,224.965,403.64,223.787,397.868z M121.216,389.335c5.419-13.227,16.96-32,38.784-32    c22.005,0,33.525,18.752,38.859,32H121.216z" fill="#FFFFFF"/>
	</g>
</g>
<g>
	<g>
		<path d="M479.786,397.868c-4.276-21.333-23.124-61.866-63.786-61.866c-40.661,0-59.509,40.533-63.787,61.867    c-0.143,0.703-0.216,1.418-0.216,2.135c0.001,5.891,4.778,10.666,10.669,10.665h106.667c0.717,0,1.433-0.072,2.135-0.216    C477.24,409.275,480.964,403.64,479.786,397.868z M377.216,389.335c5.419-13.227,16.96-32,38.784-32    c22.005,0,33.525,18.752,38.859,32H377.216z" fill="#FFFFFF"/>
	</g>
</g>
<g>
	<g>
		<path d="M341.334,336.003H234.667c-0.717,0-1.433,0.072-2.136,0.216c-5.772,1.178-9.496,6.812-8.318,12.584    c4.277,21.333,23.125,61.867,63.787,61.867c40.672-0.001,59.51-40.535,63.787-61.868c0.143-0.703,0.216-1.418,0.216-2.135    C352.002,340.776,347.225,336.001,341.334,336.003z M288,389.335c-22.005,0-33.525-18.752-38.859-32h77.643    C321.366,370.562,309.824,389.335,288,389.335z" fill="#FFFFFF"/>
	</g>
</g>
<g>
	<g>
		<rect x="149.339" y="293.331" width="128" height="21.333" fill="#FFFFFF"/>
	</g>
</g>
<g>
	<g>
		<path d="M426.667,293.335h-128v21.333h128c0.245,0.001,25.6,0.427,33.12,15.435l19.147-9.536    C465.419,293.644,428.235,293.335,426.667,293.335z" fill="#FFFFFF"/>
	</g>
</g>
<g>
	<g>
		<rect x="149.339" y="432.001" width="128" height="21.333" fill="#FFFFFF"/>
	</g>
</g>
<g>
	<g>
		<rect x="298.669" y="432.001" width="170.67" height="21.333" fill="#FFFFFF"/>
	</g>
</g>
<g>
</g>
<g>
</g>
<g>
</g>
<g>
</g>
<g>
</g>
<g>
</g>
<g>
</g>
<g>
</g>
<g>
</g>
<g>
</g>
<g>
</g>
<g>
</g>
<g>
</g>
<g>
</g>
<g>
</g>
</svg>
