<?xml version="1.0" encoding="UTF-8" standalone="no"?>
<!DOCTYPE svg PUBLIC "-//W3C//DTD SVG 1.1//EN"
 "http://www.w3.org/Graphics/SVG/1.1/DTD/svg11.dtd">
<!-- Generated by graphviz version 2.40.1 (20161225.0304)
 -->
<!-- Title: dependencies Pages: 1 -->
<svg width="1755pt" height="284pt"
 viewBox="0.00 0.00 1755.00 284.00" xmlns="http://www.w3.org/2000/svg" xmlns:xlink="http://www.w3.org/1999/xlink">
<g id="graph0" class="graph" transform="scale(1 1) rotate(0) translate(4 280)">
<title>dependencies</title>
<polygon fill="#ffffff" stroke="transparent" points="-4,4 -4,-280 1751,-280 1751,4 -4,4"/>
<text text-anchor="start" x="852.5091" y="-42.4" font-family="sans-serif" font-weight="bold" font-size="14.00" fill="#000000">Legend</text>
<polygon fill="#ffffb3" stroke="transparent" points="639.5,-10 639.5,-30 659.5,-30 659.5,-10 639.5,-10"/>
<text text-anchor="start" x="663.129" y="-15.4" font-family="sans-serif" font-size="14.00" fill="#000000"> &#160;Declarations</text>
<polygon fill="#8dd3c7" stroke="transparent" points="752.5,-10 752.5,-30 772.5,-30 772.5,-10 752.5,-10"/>
<text text-anchor="start" x="776.2251" y="-15.4" font-family="sans-serif" font-size="14.00" fill="#000000"> &#160;Module</text>
<polygon fill="#80b1d3" stroke="transparent" points="838.5,-10 838.5,-30 858.5,-30 858.5,-10 838.5,-10"/>
<text text-anchor="start" x="862.2812" y="-15.4" font-family="sans-serif" font-size="14.00" fill="#000000"> &#160;Bootstrap</text>
<polygon fill="#fdb462" stroke="transparent" points="935.5,-10 935.5,-30 955.5,-30 955.5,-10 935.5,-10"/>
<text text-anchor="start" x="959.1732" y="-15.4" font-family="sans-serif" font-size="14.00" fill="#000000"> &#160;Providers</text>
<polygon fill="#fb8072" stroke="transparent" points="1031.5,-10 1031.5,-30 1051.5,-30 1051.5,-10 1031.5,-10"/>
<text text-anchor="start" x="1055.2258" y="-15.4" font-family="sans-serif" font-size="14.00" fill="#000000"> &#160;Exports</text>
<g id="clust1" class="cluster">
<title>cluster_AppModule</title>
<polygon fill="none" stroke="#000000" stroke-dasharray="1,5" points="8,-70 8,-268 1739,-268 1739,-70 8,-70"/>
</g>
<g id="clust2" class="cluster">
<title>cluster_AppModule_declarations</title>
<polygon fill="none" stroke="#000000" points="868,-78 868,-130 1731,-130 1731,-78 868,-78"/>
</g>
<g id="clust9" class="cluster">
<title>cluster_AppModule_imports</title>
<polygon fill="none" stroke="#000000" points="158,-78 158,-130 860,-130 860,-78 158,-78"/>
</g>
<g id="clust11" class="cluster">
<title>cluster_AppModule_bootstrap</title>
<polygon fill="none" stroke="#000000" points="729,-208 729,-260 853,-260 853,-208 729,-208"/>
</g>
<g id="clust12" class="cluster">
<title>cluster_AppModule_providers</title>
<polygon fill="none" stroke="#000000" points="16,-78 16,-130 150,-130 150,-78 16,-78"/>
</g>
<!-- AppComponent -->
<g id="node1" class="node">
<title>AppComponent</title>
<polygon fill="#ffffb3" stroke="#000000" points="1722.9399,-122 1617.0601,-122 1617.0601,-86 1722.9399,-86 1722.9399,-122"/>
<text text-anchor="middle" x="1670" y="-99.8" font-family="Times,serif" font-size="14.00" fill="#000000">AppComponent</text>
</g>
<!-- AppModule -->
<g id="node7" class="node">
<title>AppModule</title>
<polygon fill="#8dd3c7" stroke="#000000" points="832.6571,-187 829.6571,-191 808.6571,-191 805.6571,-187 749.3429,-187 749.3429,-151 832.6571,-151 832.6571,-187"/>
<text text-anchor="middle" x="791" y="-164.8" font-family="Times,serif" font-size="14.00" fill="#000000">AppModule</text>
</g>
<!-- AppComponent&#45;&gt;AppModule -->
<g id="edge1" class="edge">
<title>AppComponent&#45;&gt;AppModule</title>
<path fill="none" stroke="#000000" d="M1670,-122.0908C1670,-145.1328 1670,-182 1670,-182 1670,-182 842.8047,-182 842.8047,-182"/>
<polygon fill="#000000" stroke="#000000" points="842.8047,-178.5001 832.8047,-182 842.8046,-185.5001 842.8047,-178.5001"/>
</g>
<!-- ChefItemComponent -->
<g id="node2" class="node">
<title>ChefItemComponent</title>
<polygon fill="#ffffb3" stroke="#000000" points="1599.2008,-122 1464.7992,-122 1464.7992,-86 1599.2008,-86 1599.2008,-122"/>
<text text-anchor="middle" x="1532" y="-99.8" font-family="Times,serif" font-size="14.00" fill="#000000">ChefItemComponent</text>
</g>
<!-- ChefItemComponent&#45;&gt;AppModule -->
<g id="edge2" class="edge">
<title>ChefItemComponent&#45;&gt;AppModule</title>
<path fill="none" stroke="#000000" d="M1532,-122.0449C1532,-143.6623 1532,-177 1532,-177 1532,-177 842.6945,-177 842.6945,-177"/>
<polygon fill="#000000" stroke="#000000" points="842.6945,-173.5001 832.6945,-177 842.6944,-180.5001 842.6945,-173.5001"/>
</g>
<!-- ChefsComponent -->
<g id="node3" class="node">
<title>ChefsComponent</title>
<polygon fill="#ffffb3" stroke="#000000" points="1446.9888,-122 1333.0112,-122 1333.0112,-86 1446.9888,-86 1446.9888,-122"/>
<text text-anchor="middle" x="1390" y="-99.8" font-family="Times,serif" font-size="14.00" fill="#000000">ChefsComponent</text>
</g>
<!-- ChefsComponent&#45;&gt;AppModule -->
<g id="edge3" class="edge">
<title>ChefsComponent&#45;&gt;AppModule</title>
<path fill="none" stroke="#000000" d="M1390,-122.2228C1390,-142.3652 1390,-172 1390,-172 1390,-172 843.1205,-172 843.1205,-172"/>
<polygon fill="#000000" stroke="#000000" points="843.1206,-168.5001 833.1205,-172 843.1205,-175.5001 843.1206,-168.5001"/>
</g>
<!-- HeaderComponent -->
<g id="node4" class="node">
<title>HeaderComponent</title>
<polygon fill="#ffffb3" stroke="#000000" points="1314.7437,-122 1193.2563,-122 1193.2563,-86 1314.7437,-86 1314.7437,-122"/>
<text text-anchor="middle" x="1254" y="-99.8" font-family="Times,serif" font-size="14.00" fill="#000000">HeaderComponent</text>
</g>
<!-- HeaderComponent&#45;&gt;AppModule -->
<g id="edge4" class="edge">
<title>HeaderComponent&#45;&gt;AppModule</title>
<path fill="none" stroke="#000000" d="M1254,-122.2222C1254,-140.8285 1254,-167 1254,-167 1254,-167 842.9048,-167 842.9048,-167"/>
<polygon fill="#000000" stroke="#000000" points="842.9048,-163.5001 832.9048,-167 842.9047,-170.5001 842.9048,-163.5001"/>
</g>
<!-- HomeComponent -->
<g id="node5" class="node">
<title>HomeComponent</title>
<polygon fill="#ffffb3" stroke="#000000" points="1174.5451,-122 1059.4549,-122 1059.4549,-86 1174.5451,-86 1174.5451,-122"/>
<text text-anchor="middle" x="1117" y="-99.8" font-family="Times,serif" font-size="14.00" fill="#000000">HomeComponent</text>
</g>
<!-- HomeComponent&#45;&gt;AppModule -->
<g id="edge5" class="edge">
<title>HomeComponent&#45;&gt;AppModule</title>
<path fill="none" stroke="#000000" d="M1117,-122.0336C1117,-139.0597 1117,-162 1117,-162 1117,-162 842.9514,-162 842.9514,-162"/>
<polygon fill="#000000" stroke="#000000" points="842.9514,-158.5001 832.9514,-162 842.9514,-165.5001 842.9514,-158.5001"/>
</g>
<!-- PageNotFoundComponent -->
<g id="node6" class="node">
<title>PageNotFoundComponent</title>
<polygon fill="#ffffb3" stroke="#000000" points="1041.8243,-122 876.1757,-122 876.1757,-86 1041.8243,-86 1041.8243,-122"/>
<text text-anchor="middle" x="959" y="-99.8" font-family="Times,serif" font-size="14.00" fill="#000000">PageNotFoundComponent</text>
</g>
<!-- PageNotFoundComponent&#45;&gt;AppModule -->
<g id="edge6" class="edge">
<title>PageNotFoundComponent&#45;&gt;AppModule</title>
<path fill="none" stroke="#000000" d="M959,-122.2396C959,-137.5706 959,-157 959,-157 959,-157 842.9601,-157 842.9601,-157"/>
<polygon fill="#000000" stroke="#000000" points="842.9602,-153.5001 832.9601,-157 842.9601,-160.5001 842.9602,-153.5001"/>
</g>
<!-- AppComponent  -->
<g id="node14" class="node">
<title>AppComponent </title>
<polygon fill="#80b1d3" stroke="#000000" points="845.439,-252 736.561,-252 736.561,-216 845.439,-216 845.439,-252"/>
<text text-anchor="middle" x="791" y="-229.8" font-family="Times,serif" font-size="14.00" fill="#000000">AppComponent </text>
</g>
<!-- AppModule&#45;&gt;AppComponent  -->
<g id="edge13" class="edge">
<title>AppModule&#45;&gt;AppComponent </title>
<path fill="none" stroke="#000000" stroke-dasharray="1,5" d="M791,-187.1061C791,-187.1061 791,-205.991 791,-205.991"/>
<polygon fill="#000000" stroke="#000000" points="787.5001,-205.9909 791,-215.991 794.5001,-205.991 787.5001,-205.9909"/>
</g>
<!-- AppRouterModule -->
<g id="node8" class="node">
<title>AppRouterModule</title>
<polygon fill="#8dd3c7" stroke="#000000" points="851.759,-122 848.759,-126 827.759,-126 824.759,-122 730.241,-122 730.241,-86 851.759,-86 851.759,-122"/>
<text text-anchor="middle" x="791" y="-99.8" font-family="Times,serif" font-size="14.00" fill="#000000">AppRouterModule</text>
</g>
<!-- AppRouterModule&#45;&gt;AppModule -->
<g id="edge7" class="edge">
<title>AppRouterModule&#45;&gt;AppModule</title>
<path fill="none" stroke="#000000" d="M791,-122.1061C791,-122.1061 791,-140.991 791,-140.991"/>
<polygon fill="#000000" stroke="#000000" points="787.5001,-140.9909 791,-150.991 794.5001,-140.991 787.5001,-140.9909"/>
</g>
<!-- AuthModule -->
<g id="node9" class="node">
<title>AuthModule</title>
<polygon fill="#8dd3c7" stroke="#000000" points="711.5482,-122 708.5482,-126 687.5482,-126 684.5482,-122 624.4518,-122 624.4518,-86 711.5482,-86 711.5482,-122"/>
<text text-anchor="middle" x="668" y="-99.8" font-family="Times,serif" font-size="14.00" fill="#000000">AuthModule</text>
</g>
<!-- AuthModule&#45;&gt;AppModule -->
<g id="edge8" class="edge">
<title>AuthModule&#45;&gt;AppModule</title>
<path fill="none" stroke="#000000" d="M668,-122.2396C668,-137.5706 668,-157 668,-157 668,-157 739.0144,-157 739.0144,-157"/>
<polygon fill="#000000" stroke="#000000" points="739.0144,-160.5001 749.0144,-157 739.0144,-153.5001 739.0144,-160.5001"/>
</g>
<!-- MenuModule -->
<g id="node10" class="node">
<title>MenuModule</title>
<polygon fill="#8dd3c7" stroke="#000000" points="606.2092,-122 603.2092,-126 582.2092,-126 579.2092,-122 513.7908,-122 513.7908,-86 606.2092,-86 606.2092,-122"/>
<text text-anchor="middle" x="560" y="-99.8" font-family="Times,serif" font-size="14.00" fill="#000000">MenuModule</text>
</g>
<!-- MenuModule&#45;&gt;AppModule -->
<g id="edge9" class="edge">
<title>MenuModule&#45;&gt;AppModule</title>
<path fill="none" stroke="#000000" d="M560,-122.0336C560,-139.0597 560,-162 560,-162 560,-162 739.1676,-162 739.1676,-162"/>
<polygon fill="#000000" stroke="#000000" points="739.1677,-165.5001 749.1676,-162 739.1676,-158.5001 739.1677,-165.5001"/>
</g>
<!-- OrdersModule -->
<g id="node11" class="node">
<title>OrdersModule</title>
<polygon fill="#8dd3c7" stroke="#000000" points="495.6375,-122 492.6375,-126 471.6375,-126 468.6375,-122 398.3625,-122 398.3625,-86 495.6375,-86 495.6375,-122"/>
<text text-anchor="middle" x="447" y="-99.8" font-family="Times,serif" font-size="14.00" fill="#000000">OrdersModule</text>
</g>
<!-- OrdersModule&#45;&gt;AppModule -->
<g id="edge10" class="edge">
<title>OrdersModule&#45;&gt;AppModule</title>
<path fill="none" stroke="#000000" d="M447,-122.2222C447,-140.8285 447,-167 447,-167 447,-167 739.1628,-167 739.1628,-167"/>
<polygon fill="#000000" stroke="#000000" points="739.1628,-170.5001 749.1628,-167 739.1627,-163.5001 739.1628,-170.5001"/>
</g>
<!-- ProfileModule -->
<g id="node12" class="node">
<title>ProfileModule</title>
<polygon fill="#8dd3c7" stroke="#000000" points="379.65,-122 376.65,-126 355.65,-126 352.65,-122 282.35,-122 282.35,-86 379.65,-86 379.65,-122"/>
<text text-anchor="middle" x="331" y="-99.8" font-family="Times,serif" font-size="14.00" fill="#000000">ProfileModule</text>
</g>
<!-- ProfileModule&#45;&gt;AppModule -->
<g id="edge11" class="edge">
<title>ProfileModule&#45;&gt;AppModule</title>
<path fill="none" stroke="#000000" d="M331,-122.2228C331,-142.3652 331,-172 331,-172 331,-172 738.9586,-172 738.9586,-172"/>
<polygon fill="#000000" stroke="#000000" points="738.9587,-175.5001 748.9586,-172 738.9586,-168.5001 738.9587,-175.5001"/>
</g>
<!-- SharedModule -->
<g id="node13" class="node">
<title>SharedModule</title>
<polygon fill="#8dd3c7" stroke="#000000" points="264.4231,-122 261.4231,-126 240.4231,-126 237.4231,-122 165.5769,-122 165.5769,-86 264.4231,-86 264.4231,-122"/>
<text text-anchor="middle" x="215" y="-99.8" font-family="Times,serif" font-size="14.00" fill="#000000">SharedModule</text>
</g>
<!-- SharedModule&#45;&gt;AppModule -->
<g id="edge12" class="edge">
<title>SharedModule&#45;&gt;AppModule</title>
<path fill="none" stroke="#000000" d="M215,-122.0449C215,-143.6623 215,-177 215,-177 215,-177 739.1115,-177 739.1115,-177"/>
<polygon fill="#000000" stroke="#000000" points="739.1116,-180.5001 749.1115,-177 739.1115,-173.5001 739.1116,-180.5001"/>
</g>
<!-- ChefService -->
<g id="node15" class="node">
<title>ChefService</title>
<ellipse fill="#fdb462" stroke="#000000" cx="83" cy="-104" rx="58.5251" ry="18"/>
<text text-anchor="middle" x="83" y="-99.8" font-family="Times,serif" font-size="14.00" fill="#000000">ChefService</text>
</g>
<!-- ChefService&#45;&gt;AppModule -->
<g id="edge14" class="edge">
<title>ChefService&#45;&gt;AppModule</title>
<path fill="none" stroke="#000000" d="M83,-122.0908C83,-145.1328 83,-182 83,-182 83,-182 739.0935,-182 739.0935,-182"/>
<polygon fill="#000000" stroke="#000000" points="739.0935,-185.5001 749.0935,-182 739.0934,-178.5001 739.0935,-185.5001"/>
</g>
</g>
</svg>
